<svg width="160" height="160" viewBox="0 0 160 160" fill="none" xmlns="http://www.w3.org/2000/svg">
<g clip-path="url(#clip0_31_481)">
<path d="M100.668 8.70049C97.9761 5.94589 94.761 3.75709 91.2113 2.26272C87.6617 0.768342 83.8492 -0.00146484 79.9978 -0.00146484C76.1464 -0.00146484 72.3339 0.768342 68.7843 2.26272C65.2346 3.75709 62.0195 5.94589 59.3278 8.70049L53.1078 15.0805L44.2078 14.9705C40.3553 14.9249 36.5326 15.6501 32.9644 17.1034C29.3963 18.5567 26.1547 20.7088 23.4304 23.4331C20.7061 26.1574 18.554 29.3989 17.1007 32.9671C15.6474 36.5353 14.9222 40.358 14.9678 44.2105L15.0678 53.1105L8.70781 59.3305C5.95322 62.0222 3.76442 65.2373 2.27004 68.787C0.775666 72.3366 0.00585938 76.1491 0.00585938 80.0005C0.00585938 83.8519 0.775666 87.6644 2.27004 91.214C3.76442 94.7637 5.95322 97.9788 8.70781 100.67L15.0778 106.89L14.9678 115.79C14.9222 119.643 15.6474 123.466 17.1007 127.034C18.554 130.602 20.7061 133.844 23.4304 136.568C26.1547 139.292 29.3963 141.444 32.9644 142.898C36.5326 144.351 40.3553 145.076 44.2078 145.03L53.1078 144.93L59.3278 151.29C62.0195 154.045 65.2346 156.234 68.7843 157.728C72.3339 159.223 76.1464 159.992 79.9978 159.992C83.8492 159.992 87.6617 159.223 91.2113 157.728C94.761 156.234 97.9761 154.045 100.668 151.29L106.888 144.92L115.788 145.03C119.64 145.076 123.463 144.351 127.031 142.898C130.599 141.444 133.841 139.292 136.565 136.568C139.29 133.844 141.442 130.602 142.895 127.034C144.348 123.466 145.073 119.643 145.028 115.79L144.928 106.89L151.288 100.67C154.042 97.9788 156.231 94.7637 157.726 91.214C159.22 87.6644 159.99 83.8519 159.99 80.0005C159.99 76.1491 159.22 72.3366 157.726 68.787C156.231 65.2373 154.042 62.0222 151.288 59.3305L144.918 53.1105L145.028 44.2105C145.073 40.358 144.348 36.5353 142.895 32.9671C141.442 29.3989 139.29 26.1574 136.565 23.4331C133.841 20.7088 130.599 18.5567 127.031 17.1034C123.463 15.6501 119.64 14.9249 115.788 14.9705L106.888 15.0705L100.668 8.71049V8.70049ZM79.9978 40.0005C85.3478 40.0005 89.5378 44.6205 88.9978 49.9505L85.4978 85.0205C85.3802 86.3982 84.7498 87.6816 83.7314 88.6169C82.7129 89.5521 81.3805 90.071 79.9978 90.071C78.6151 90.071 77.2827 89.5521 76.2643 88.6169C75.2458 87.6816 74.6154 86.3982 74.4978 85.0205L70.9978 49.9505C70.8721 48.6928 71.0113 47.4228 71.4063 46.2222C71.8013 45.0215 72.4434 43.917 73.2912 42.9796C74.1391 42.0422 75.1739 41.2929 76.329 40.7798C77.4841 40.2667 78.7339 40.0012 79.9978 40.0005ZM80.0178 100C82.67 100 85.2135 101.054 87.0889 102.929C88.9642 104.805 90.0178 107.348 90.0178 110C90.0178 112.653 88.9642 115.196 87.0889 117.072C85.2135 118.947 82.67 120 80.0178 120C77.3656 120 74.8221 118.947 72.9467 117.072C71.0714 115.196 70.0178 112.653 70.0178 110C70.0178 107.348 71.0714 104.805 72.9467 102.929C74.8221 101.054 77.3656 100 80.0178 100Z" fill="#FF4F51"/>
</g>
<defs>
<clipPath id="clip0_31_481">
<rect width="160" height="160" fill="white"/>
</clipPath>
</defs>
</svg>
