<svg width="124" height="123" viewBox="0 0 124 123" fill="none" xmlns="http://www.w3.org/2000/svg">
<path d="M51 36C59.5604 36 66.5 29.0604 66.5 20.5C66.5 11.9396 59.5604 5 51 5C42.4396 5 35.5 11.9396 35.5 20.5C35.5 29.0604 42.4396 36 51 36Z" fill="white" stroke="#939598" stroke-width="2" stroke-miterlimit="10" stroke-linecap="round" stroke-linejoin="round"/>
<path d="M50.5 32C56.5751 32 61.5 27.0751 61.5 21C61.5 14.9249 56.5751 10 50.5 10C44.4249 10 39.5 14.9249 39.5 21C39.5 27.0751 44.4249 32 50.5 32Z" fill="white" stroke="#939598" stroke-miterlimit="10" stroke-linecap="round" stroke-linejoin="round"/>
<path d="M92.2798 51.2347C89.4182 51.2347 87.0795 53.5609 87.0795 56.4097V68.6818C87.0795 69.617 86.3053 70.396 85.3568 70.396C84.3872 70.396 83.608 69.617 83.608 68.6818V51.4552C83.608 48.5903 81.2879 46.2803 78.4077 46.2803C75.5462 46.2803 73.2124 48.5891 73.2124 51.4552V65.2224C73.2124 66.1711 72.4295 66.9366 71.4847 66.9366C70.5189 66.9366 69.7359 66.1711 69.7359 65.2224V42.6054C69.7359 39.7565 67.4158 37.4354 64.5331 37.4354C61.6567 37.4354 59.3366 39.7565 59.3366 42.6054V65.2224C59.3366 66.1711 58.5574 66.9366 57.5903 66.9366C56.6455 66.9366 55.8639 66.1711 55.8639 65.2224V21.1749C55.8639 18.31 53.5276 16 50.6648 16C47.7871 16 45.467 18.3088 45.467 21.1749V82.4812L38.4345 72.9042C36.3534 69.7235 32.287 68.6446 29.3072 70.4852C26.3411 72.3481 25.6129 76.4318 27.6642 79.6163C27.6642 79.6163 38.9934 96.6732 43.824 103.971C48.6484 111.285 56.4763 117 71.1113 117C95.3317 117 97.5 98.3936 97.5 92.831V56.4097C97.5012 53.5609 95.16 51.2347 92.2798 51.2347Z" fill="white" stroke="#58595B" stroke-width="4" stroke-miterlimit="10"/>
<path d="M92.2798 51.2347C89.4182 51.2347 87.0795 53.5609 87.0795 56.4097V68.6818C87.0795 69.617 86.3053 70.396 85.3568 70.396C84.3872 70.396 83.608 69.617 83.608 68.6818V51.4552C83.608 48.5903 81.2879 46.2803 78.4077 46.2803C75.5462 46.2803 73.2124 48.5891 73.2124 51.4552V65.2224C73.2124 66.1711 72.4295 66.9366 71.4847 66.9366C70.5189 66.9366 69.7359 66.1711 69.7359 65.2224V42.6054C69.7359 39.7565 67.4158 37.4354 64.5331 37.4354C61.6567 37.4354 59.3366 39.7565 59.3366 42.6054V65.2224C59.3366 66.1711 58.5574 66.9366 57.5903 66.9366C56.6455 66.9366 55.8639 66.1711 55.8639 65.2224V21.1749C55.8639 18.31 53.5276 16 50.6648 16C47.7871 16 45.467 18.3088 45.467 21.1749V82.4812L38.4345 72.9042C36.3534 69.7235 32.287 68.6446 29.3072 70.4852C26.3411 72.3481 25.6129 76.4318 27.6642 79.6163C27.6642 79.6163 38.9934 96.6732 43.824 103.971C48.6484 111.285 56.4763 117 71.1113 117C95.3317 117 97.5 98.3936 97.5 92.831V56.4097C97.5012 53.5609 95.16 51.2347 92.2798 51.2347Z" fill="white" stroke="#58595B" stroke-miterlimit="10" stroke-linecap="round" stroke-linejoin="round"/>
</svg>
