<svg width="216" height="216" viewBox="0 0 216 216" fill="none" xmlns="http://www.w3.org/2000/svg">
<rect width="216" height="216" rx="108" fill="#F3F3F3"/>
<path d="M138.439 57.4008C144.668 57.4008 149.717 62.461 149.717 68.7036C149.717 74.9462 144.668 80.0065 138.439 80.0065C132.209 80.0065 127.16 74.9462 127.16 68.7036C127.16 62.461 132.21 57.4008 138.439 57.4008ZM148.106 83.2361H128.772C121.661 83.2569 115.903 89.0285 115.882 96.1535V117.855C115.882 120.045 117.58 121.908 119.763 121.987C121.987 122.068 123.855 120.328 123.936 118.1C123.938 118.051 123.939 118.001 123.939 117.952V97.8227C123.928 96.9583 124.584 96.2324 125.443 96.1576C126.331 96.0987 127.098 96.772 127.158 97.662C127.161 97.6987 127.161 97.7354 127.161 97.7728V156.1C127.161 158.664 129.235 160.743 131.794 160.743C134.353 160.743 136.427 158.664 136.427 156.1V127.306C136.412 126.225 137.231 125.315 138.306 125.219C139.416 125.144 140.376 125.986 140.45 127.098C140.454 127.144 140.455 127.19 140.455 127.237V156.1C140.455 158.664 142.529 160.743 145.088 160.743C147.647 160.743 149.721 158.664 149.721 156.1V97.8234C149.71 96.959 150.366 96.2331 151.225 96.1583C152.113 96.0994 152.881 96.7727 152.94 97.6627C152.943 97.6994 152.943 97.7361 152.943 97.7735V117.86C152.943 120.05 154.642 121.913 156.825 121.992C159.048 122.073 160.916 120.333 160.997 118.105C160.999 118.054 161 118.003 161 117.952V96.1535C160.975 89.0285 155.217 83.2569 148.106 83.2361Z" fill="#A7D535"/>
<path d="M90.778 70.4192H78.4834V89.194H68.851V70.4192H56.5557L73.6669 44L90.778 70.4192Z" fill="#A7D535"/>
<path d="M56.5557 145.581H68.8503V126.806H78.4827V145.581H90.778L73.6669 172L56.5557 145.581Z" fill="#A7D535"/>
<path d="M72.626 112.003V116.16H56.0056V112.854L64.4886 104.825C65.3891 103.965 65.9966 103.224 66.3111 102.605C66.6256 101.986 66.7825 101.372 66.7825 100.764C66.7825 99.8818 66.4839 99.2051 65.8868 98.7328C65.2896 98.2604 64.4146 98.0242 63.2632 98.0242C62.2998 98.0242 61.4303 98.2085 60.6556 98.5755C59.8801 98.9433 59.2311 99.494 58.7072 100.229L55 97.8344C55.8584 96.5545 57.0423 95.5516 58.5504 94.8278C60.0584 94.1033 61.7863 93.7418 63.7346 93.7418C65.3684 93.7418 66.7977 94.0091 68.023 94.5445C69.2484 95.0799 70.2015 95.8355 70.8823 96.8114C71.5623 97.7873 71.9031 98.9371 71.9031 100.259C71.9031 101.455 71.6515 102.579 71.149 103.628C70.6466 104.678 69.6721 105.874 68.2269 107.217L63.1685 112.003H72.626Z" fill="#A7D535"/>
<path d="M94.4507 116.16V106.021L89.3922 114.522H87.3188L82.3862 105.989V116.16H77.956V99.2204H83.0773L88.4813 109.013L94.2309 99.2204H98.8179L98.8808 116.16H94.4507Z" fill="#A7D535"/>
</svg>
