<svg width="128" height="128" viewBox="0 0 128 128" fill="none" xmlns="http://www.w3.org/2000/svg">
<path d="M26.9008 65.08C30.7708 86.18 48.1608 102.08 69.0308 102.08C92.7508 102.08 110.631 81.5 111.981 56.2C112.981 37.36 102.531 18.7 79.4108 8.31997C69.262 3.80122 57.9362 2.63816 47.0808 4.99997C69.3108 -1.02003 88.6108 5.01997 101.681 15.66C109.881 22.12 117.801 30.99 121.001 40.06C123.252 46.4485 124.523 53.141 124.771 59.91C124.771 94.31 97.9008 122.21 63.5108 122.21C48.7529 122.216 34.4725 116.98 23.2161 107.436C11.9596 97.8918 4.45869 84.6601 2.05078 70.1C2.62078 54.28 21.8808 51.87 26.8808 65.08H26.9008Z" fill="#A7D535"/>
</svg>
