<svg width="1604" height="3300" viewBox="0 0 1604 3300" fill="none" xmlns="http://www.w3.org/2000/svg">
<path d="M1389.32 964.884L1389.32 964.851L1389.31 964.817C1387.44 957.339 1385.1 949.861 1382.28 942.501L1377.61 944.288C1372.21 930.187 1365.03 916.537 1356.07 904.227L1360.11 901.284C1355.49 894.935 1350.39 888.917 1344.82 883.35L1344.66 883.189L1344.49 883.044C1338.95 878.427 1333.35 873.898 1327.69 869.456L1324.6 873.388C1313.34 864.543 1301.83 856.042 1290.1 847.871L1292.96 843.767C1281.15 835.547 1269.11 827.66 1256.83 820.09L1254.21 824.346C1242.06 816.86 1229.69 809.686 1217.09 802.808L1219.48 798.419C1206.91 791.559 1194.11 784.993 1181.08 778.708L1178.91 783.212C1166.1 777.034 1153.07 771.128 1139.82 765.479L1141.78 760.879C1128.65 755.282 1115.31 749.936 1101.75 744.829L1099.99 749.509C1086.71 744.509 1073.22 739.737 1059.53 735.182L1061.11 730.438C1054.32 728.181 1047.48 725.976 1040.59 723.824L1040.29 723.731L1039.99 723.675L1039.98 723.674L1039.1 728.595L1039.09 728.594L1039.56 725.977L1039.98 723.673C1039.97 723.673 1039.97 723.673 1039.97 723.673C1038.04 723.322 1036.11 722.97 1034.18 722.619C1031.1 722.06 1028.01 721.5 1024.93 720.942L1024.04 725.862C1014.01 724.045 1003.98 722.244 993.948 720.486L994.811 715.561C990.666 714.834 986.52 714.115 982.374 713.406L974.966 696.642L970.392 698.663L953.406 660.224L957.979 658.203L940.993 619.764L936.42 621.785L919.433 583.346L924.007 581.325L917.57 566.76C922.629 564.577 927.614 562.255 932.52 559.8L930.283 555.329C943.006 548.962 955.192 541.68 966.754 533.569L969.625 537.663C981.447 529.37 992.626 520.226 1003.08 510.32L999.636 506.691C1009.92 496.946 1019.48 486.45 1028.23 475.292L1032.16 478.378C1041.04 467.064 1049.1 455.081 1056.26 442.515L1051.91 440.04C1058.89 427.789 1065 414.976 1070.14 401.685L1074.81 403.491C1079.97 390.154 1084.19 376.345 1087.37 362.147L1082.49 361.053C1085.56 347.389 1087.65 333.359 1088.69 319.037L1093.68 319.401C1094.2 312.267 1094.46 305.063 1094.46 297.798C1094.46 291.36 1094.26 284.971 1093.85 278.635L1088.86 278.957C1088.04 266.274 1086.4 253.814 1083.99 241.631L1088.89 240.661C1086.39 228.011 1083.07 215.655 1079 203.648L1074.26 205.255C1070.2 193.29 1065.38 181.68 1059.84 170.481L1064.33 168.266C1058.64 156.767 1052.23 145.695 1045.14 135.111L1040.99 137.893C1033.99 127.437 1026.32 117.465 1018.05 108.038L1021.81 104.74C1013.38 95.1357 1004.33 86.0878 994.725 77.6583L991.427 81.4163C982 73.1427 972.028 65.4754 961.572 58.4752L964.353 54.3203C953.77 47.2348 942.698 40.8207 931.199 35.1392L928.984 39.6219C917.785 34.0887 906.174 29.2627 894.21 25.2022L895.817 20.4675C883.81 16.3925 871.453 13.0754 858.804 10.573L857.834 15.4779C845.651 13.0678 833.191 11.4265 820.508 10.6069L820.83 5.61727C814.494 5.20784 808.104 5 801.667 5C795.229 5 788.839 5.20784 782.503 5.61727L782.826 10.6069C770.142 11.4265 757.683 13.0678 745.499 15.478L744.529 10.573C731.88 13.0754 719.523 16.3926 707.516 20.4675L709.123 25.2022C697.159 29.2627 685.548 34.0887 674.349 39.6219L672.134 35.1392C660.635 40.8207 649.563 47.2348 638.98 54.3203L641.762 58.4752C631.305 65.4754 621.333 73.1427 611.907 81.4162L608.609 77.6583C599.004 86.0877 589.956 95.1357 581.527 104.74L585.285 108.038C577.011 117.465 569.344 127.437 562.344 137.893L558.189 135.111C551.103 145.695 544.689 156.767 539.008 168.266L543.49 170.481C537.957 181.68 533.131 193.29 529.071 205.255L524.336 203.648C520.261 215.655 516.944 228.011 514.442 240.661L519.346 241.631C516.936 253.814 515.295 266.274 514.475 278.957L509.486 278.635C509.076 284.971 508.868 291.36 508.868 297.798C508.868 305.063 509.133 312.267 509.654 319.401L514.64 319.037C515.685 333.359 517.778 347.389 520.842 361.053L515.963 362.147C519.147 376.345 523.363 390.154 528.527 403.491L533.19 401.685C538.336 414.976 544.441 427.789 551.42 440.04L547.075 442.515C554.233 455.081 562.294 467.064 571.169 478.378L575.103 475.292C583.857 486.45 593.418 496.946 603.698 506.691L600.258 510.32C610.707 520.226 621.887 529.37 633.708 537.663L636.579 533.569C648.141 541.68 660.327 548.962 673.051 555.329L670.813 559.8C675.834 562.312 680.937 564.685 686.117 566.912L680.93 581.69L685.648 583.346L672.157 621.785L667.44 620.129L653.949 658.568L658.667 660.224L645.176 698.663L640.459 697.007L634.648 713.564C629.324 714.681 624.001 715.84 618.679 717.038L619.777 721.916C607.411 724.701 595.045 727.703 582.679 730.894L581.43 726.053C575.275 727.641 569.122 729.275 562.969 730.953C555.956 732.707 548.997 734.567 542.091 736.529L543.457 741.339C529.585 745.281 515.927 749.641 502.485 754.392L500.819 749.678C487.14 754.513 473.684 759.75 460.452 765.361L462.404 769.965C449.157 775.582 436.133 781.578 423.333 787.924L421.112 783.445C408.144 789.875 395.406 796.661 382.898 803.775L385.37 808.121C372.88 815.224 360.618 822.658 348.585 830.393L345.882 826.187C333.724 834.001 321.801 842.12 310.111 850.514L313.027 854.575C301.36 862.952 289.925 871.606 278.723 880.507L275.612 876.592C269.964 881.08 264.374 885.63 258.844 890.239L258.67 890.384L258.51 890.545C252.942 896.112 247.848 902.13 243.224 908.479L247.266 911.422C238.301 923.732 231.12 937.382 225.723 951.483L221.054 949.696C218.237 957.056 215.894 964.534 214.025 972.012L214.016 972.046L214.008 972.079L209.43 991.539L214.297 992.684L205.14 1031.6L200.272 1030.46L191.115 1069.37L195.982 1070.52L186.825 1109.44L181.958 1108.29L172.801 1147.21L177.668 1148.36L168.511 1187.27L163.644 1186.13L154.486 1225.05L159.353 1226.19L150.196 1265.11L145.329 1263.97L136.172 1302.88L141.039 1304.03L131.882 1342.95L127.015 1341.8L117.858 1380.72L122.725 1381.87L113.567 1420.78L108.7 1419.64L99.5431 1458.56L104.41 1459.7L95.253 1498.62L90.3859 1497.47L81.2287 1536.39L86.0958 1537.54L76.9386 1576.46L72.0715 1575.31L62.9143 1614.23L67.7814 1615.37L58.6242 1654.29L53.7571 1653.15L44.5998 1692.07L49.4669 1693.21L40.3097 1732.13L35.4426 1730.98L26.2854 1769.9L31.1525 1771.05L21.9953 1809.96L17.1282 1808.82L12.5496 1828.28L12.4167 1828.84V1829.42C12.4167 1830.95 11.8821 1833.37 10.834 1837.06L15.644 1838.43C15.3586 1839.43 15.0523 1840.48 14.7359 1841.56C13.4366 1845.99 11.9664 1851.01 11.0667 1856.25L6.139 1855.4C5.58701 1858.61 5.22168 1861.97 5.22168 1865.4C5.22168 1871.98 5.65456 1878.47 6.4937 1884.83L11.4508 1884.18C13.1201 1896.84 16.4525 1909 21.2197 1920.43L16.6053 1922.35C21.6448 1934.43 28.232 1945.71 36.1136 1955.94L40.0751 1952.89C47.7396 1962.85 56.6723 1971.78 66.6256 1979.44L63.575 1983.41C73.8102 1991.29 85.0917 1997.88 97.1688 2002.91L99.0942 1998.3C110.519 2003.07 122.677 2006.4 135.34 2008.07L134.686 2013.03C141.052 2013.87 147.539 2014.3 154.121 2014.3C162.3 2014.3 170.364 2013.53 178.243 2012.06L177.33 2007.15C192.733 2004.29 207.433 1998.69 220.892 1990.99L223.374 1995.33C237.391 1987.31 250.092 1977.1 260.918 1965.39L257.245 1961.99C267.948 1950.41 276.762 1937.3 283.102 1923.36L287.653 1925.43C291.024 1918.03 293.728 1910.38 295.676 1902.59L295.681 1902.57L295.685 1902.55L300.407 1882.99L295.547 1881.81L304.99 1842.69L309.85 1843.86L319.294 1804.74L314.433 1803.57L323.877 1764.44L328.737 1765.62L338.18 1726.5L333.32 1725.32L342.763 1686.2L347.624 1687.37L357.067 1648.25L352.207 1647.08L361.65 1607.95L366.511 1609.13L375.954 1570.01L371.094 1568.83L380.537 1529.71L385.397 1530.88L394.841 1491.76L389.98 1490.59L399.424 1451.46L404.284 1452.64L413.728 1413.51L408.867 1412.34L418.31 1373.22L423.171 1374.39L432.614 1335.27L427.754 1334.1L437.056 1295.56H439.619L441.919 1296.11V1335.85H436.919V1376.14H441.919V1416.43H436.919V1456.73H441.919V1497.02H436.919V1537.31H441.919V1577.6H436.919V1617.89H441.919V1658.18H436.919V1698.48H441.919V1738.77H436.919V1779.06H441.919V1819.35H436.919V1859.64H441.919V1899.93H436.919V1940.23H441.919V1980.52H436.919V2020.81H441.919V2061.1H436.919V2101.39H441.919V2141.69H436.919V2181.98H441.919V2222.27H436.919V2262.56H441.919V2302.85H436.919V2343.14H441.919V2383.44H436.919V2423.73H441.919V2464.02H436.919V2504.31H441.919V2544.6H436.919V2584.89H441.919V2625.19H436.919V2665.48H441.919V2705.77H436.919V2746.06H441.919V2786.35H436.919V2826.64H441.919V2866.94H436.919V2907.23H441.919V2947.52H436.919V2987.81H441.919V3028.1H436.919V3068.4H441.919V3108.69H436.919V3148.98H441.919V3189.27H436.919V3229.56H441.919V3269.85H436.919V3290V3295H441.919H459.906V3290H495.881V3295H531.856V3290H567.831V3295H603.805V3290H639.78V3295H675.755V3290H711.73V3295H729.717H734.717V3290V3269.76H729.717V3229.29H734.717V3188.82H729.717V3148.35H734.717V3107.88H729.717V3067.41H734.717V3026.93H729.717V2986.46H734.717V2945.99H729.717V2905.52H734.717V2865.05H729.717V2824.58H734.717V2784.1H729.717V2743.63H734.717V2703.16H729.717V2662.69H734.717V2622.22H729.717V2581.75H734.717V2541.28H729.717V2500.8H734.717V2460.33H729.717V2419.86H734.717V2379.39H729.717V2338.92H734.717V2298.45H729.717V2257.97H734.717V2217.5H729.717V2177.03H734.717V2136.56H729.717V2096.09H734.717V2055.62H729.717V2015.14H734.717V1999.91H747.704V1994.91H783.679V1999.91H819.654V1994.91H855.629V1999.91H868.616V2015.14H873.616V2055.62H868.616V2096.09H873.616V2136.56H868.616V2177.03H873.616V2217.5H868.616V2257.97H873.616V2298.45H868.616V2338.92H873.616V2379.39H868.616V2419.86H873.616V2460.33H868.616V2500.8H873.616V2541.27H868.616V2581.75H873.616V2622.22H868.616V2662.69H873.616V2703.16H868.616V2743.63H873.616V2784.1H868.616V2824.58H873.616V2865.05H868.616V2905.52H873.616V2945.99H868.616V2986.46H873.616V3026.93H868.616V3067.41H873.616V3107.88H868.616V3148.35H873.616V3188.82H868.616V3229.29H873.616V3269.76H868.616V3290V3295H873.616H891.604V3290H927.578V3295H963.553V3290H999.528V3295H1035.5V3290H1071.48V3295H1107.45V3290H1143.43V3295H1161.41H1166.41V3290V3269.78H1161.41V3229.35H1166.41V3188.91H1161.41V3148.48H1166.41V3108.04H1161.41V3067.6H1166.41V3027.17H1161.41V2986.73H1166.41V2946.3H1161.41V2905.86H1166.41V2865.43H1161.41V2824.99H1166.41V2784.55H1161.41V2744.12H1166.41V2703.68H1161.41V2663.25H1166.41V2622.81H1161.41V2582.38H1166.41V2541.94H1161.41V2501.5H1166.41V2461.07H1161.41V2420.63H1166.41V2380.2H1161.41V2339.76H1166.41V2299.33H1161.41V2258.89H1166.41V2218.46H1161.41V2178.02H1166.41V2137.58H1161.41V2097.15H1166.41V2056.71H1161.41V2016.28H1166.41V1975.84H1161.41V1935.41H1166.41V1894.97H1161.41V1854.53H1166.41V1814.1H1161.41V1773.66H1166.41V1733.23H1161.41V1692.79H1166.41V1652.36H1161.41V1611.92H1166.41V1571.48H1161.41V1531.05H1166.41V1490.61H1161.41V1450.18H1166.41V1409.74H1161.41V1369.31H1166.41V1328.87H1161.41V1288.92L1163.42 1288.43H1166.29L1175.58 1326.9L1170.72 1328.07L1180.16 1367.2L1185.02 1366.02L1194.47 1405.15L1189.61 1406.32L1199.05 1445.44L1203.91 1444.27L1213.35 1483.39L1208.49 1484.57L1217.94 1523.69L1222.8 1522.51L1232.24 1561.64L1227.38 1562.81L1236.82 1601.93L1241.68 1600.76L1251.13 1639.88L1246.27 1641.06L1255.71 1680.18L1260.57 1679L1270.01 1718.13L1265.15 1719.3L1274.6 1758.42L1279.46 1757.25L1288.9 1796.37L1284.04 1797.55L1293.48 1836.67L1298.34 1835.49L1307.79 1874.62L1302.93 1875.79L1307.65 1895.35L1307.65 1895.37L1307.66 1895.39C1309.61 1903.18 1312.31 1910.83 1315.68 1918.24L1320.23 1916.17C1326.57 1930.1 1335.39 1943.21 1346.09 1954.8L1342.42 1958.19C1353.24 1969.91 1365.94 1980.12 1379.96 1988.13L1382.44 1983.79C1395.9 1991.49 1410.6 1997.09 1426 1999.95L1425.09 2004.87C1432.97 2006.33 1441.03 2007.1 1449.21 2007.1C1455.79 2007.1 1462.28 2006.67 1468.65 2005.83L1467.99 2000.87C1480.66 1999.2 1492.81 1995.87 1504.24 1991.11L1506.16 1995.72C1518.24 1990.68 1529.52 1984.09 1539.76 1976.21L1536.71 1972.25C1546.66 1964.59 1555.59 1955.65 1563.26 1945.7L1567.22 1948.75C1575.1 1938.51 1581.69 1927.23 1586.73 1915.16L1582.11 1913.23C1586.88 1901.81 1590.21 1889.65 1591.88 1876.98L1596.84 1877.64C1597.68 1871.27 1598.11 1864.79 1598.11 1858.2C1598.11 1854.78 1597.75 1851.41 1597.19 1848.2L1592.27 1849.05C1591.37 1843.82 1589.9 1838.8 1588.6 1834.36C1588.28 1833.28 1587.97 1832.24 1587.69 1831.23L1592.5 1829.87C1591.45 1826.17 1590.92 1823.75 1590.92 1822.23V1821.65L1590.78 1821.08L1586.21 1801.62L1581.34 1802.77L1572.18 1763.85L1577.05 1762.71L1567.89 1723.79L1563.02 1724.93L1553.87 1686.02L1558.73 1684.87L1549.58 1645.95L1544.71 1647.1L1535.55 1608.18L1540.42 1607.03L1531.26 1568.12L1526.39 1569.26L1517.24 1530.34L1522.1 1529.2L1512.95 1490.28L1508.08 1491.42L1498.92 1452.51L1503.79 1451.36L1494.63 1412.44L1489.77 1413.59L1480.61 1374.67L1485.48 1373.53L1476.32 1334.61L1471.45 1335.75L1462.29 1296.83L1467.16 1295.69L1458 1256.77L1453.14 1257.92L1443.98 1219L1448.85 1217.85L1439.69 1178.93L1434.82 1180.08L1425.67 1141.16L1430.53 1140.02L1421.38 1101.1L1416.51 1102.24L1407.35 1063.33L1412.22 1062.18L1403.06 1023.26L1398.19 1024.41L1389.04 985.489L1393.9 984.344L1389.32 964.884Z" stroke="white" stroke-width="10" stroke-dasharray="40 40"/>
</svg>
